<svg xmlns="http://www.w3.org/2000/svg" version="1.1" xmlns:xlink="http://www.w3.org/1999/xlink" xmlns:svgjs="http://svgjs.dev/svgjs" width="1500" height="1377" viewBox="0 0 1500 1377"><g transform="matrix(1,0,0,1,0.6349147925943726,0.5574898785424693)"><svg viewBox="0 0 269 247" data-background-color="#ffffff" preserveAspectRatio="xMidYMid meet" height="1377" width="1500" xmlns="http://www.w3.org/2000/svg" xmlns:xlink="http://www.w3.org/1999/xlink"><g id="tight-bounds" transform="matrix(1,0,0,1,-0.11386138613858066,-0.09999999999999432)"><svg viewBox="0 0 269.22772277227716 247.2" height="247.2" width="269.22772277227716"><g><svg viewBox="0 0 269.22772277227716 247.2" height="247.2" width="269.22772277227716"><g><svg viewBox="0 0 269.22772277227716 247.2" height="247.2" width="269.22772277227716"><g id="textblocktransform"><svg viewBox="0 0 269.22772277227716 247.2" height="247.2" width="269.22772277227716" id="textblock"><g><svg viewBox="0 0 269.22772277227716 247.2" height="247.2" width="269.22772277227716"><g transform="matrix(1,0,0,1,0,0)"><svg width="269.22772277227716" viewBox="0 -29.5 49.5 45.45" height="247.2" data-palette-color="#7e22ce"><path d="M4.5 0L0 0 0-29.5 4.5-29.5 4.5 0ZM7.5 0L6 0 6-29.5 7.5-29.5 7.5 0ZM10.5 0L9 0 9-29.5 10.5-29.5 10.5 0ZM18 0L16.5 0 16.5-29.5 18-29.5 18 0ZM24 0L19.5 0 19.5-29.5 24-29.5 24 0ZM15.75 15.95L14.6 12.55 10.85 12.55 9.7 15.95 8.4 15.95 12.65 4.15 12.8 4.15 17.1 15.95 15.75 15.95ZM11.2 11.55L14.25 11.55 12.75 7.15 11.2 11.55ZM30 0L25.5 0 25.5-29.5 30-29.5 30 0ZM33 0L31.5 0 31.5-29.5 33-29.5 33 0ZM36 0L34.5 0 34.5-29.5 36-29.5 36 0ZM43.5 0L42 0 42-29.5 43.5-29.5 43.5 0ZM49.5 0L45 0 45-29.5 49.5-29.5 49.5 0ZM41.25 15.95L40.1 12.55 36.35 12.55 35.2 15.95 33.9 15.95 38.15 4.15 38.3 4.15 42.6 15.95 41.25 15.95ZM36.7 11.55L39.75 11.55 38.25 7.15 36.7 11.55Z" opacity="1" transform="matrix(1,0,0,1,0,0)" fill="#7e22ce" class="wordmark-text-0" data-fill-palette-color="primary" id="text-0"></path></svg></g></svg></g></svg></g></svg></g></svg></g><defs></defs></svg><rect width="269.22772277227716" height="247.2" fill="none" stroke="none" visibility="hidden"></rect></g></svg></g></svg>